/* XPM */
static char * NemesisPI_xpm[] = {
"32 32 51 1",
" 	c #FFFFFF",
".	c #FBFBFB",
"+	c #000000",
"@	c #686868",
"#	c #FDFDFD",
"$	c #4D4D4D",
"%	c #161616",
"&	c #515151",
"*	c #939393",
"=	c #DDDDDD",
"-	c #CCCCCC",
";	c #C8C8C8",
">	c #404040",
",	c #2A2A2A",
"'	c #606060",
")	c #FCFCFC",
"!	c #454545",
"~	c #EBEBEB",
"{	c #979797",
"]	c #3D3D3D",
"^	c #F9F9F9",
"/	c #626262",
"(	c #ACACAC",
"_	c #565656",
":	c #F3F3F3",
"<	c #323232",
"[	c #585858",
"}	c #898989",
"|	c #D2D2D2",
"1	c #B2B2B2",
"2	c #C4C4C4",
"3	c #F6F6F6",
"4	c #3B3B3B",
"5	c #FAFAFA",
"6	c #ECECEC",
"7	c #9A9A9A",
"8	c #B7B7B7",
"9	c #BEBEBE",
"0	c #F7F7F7",
"a	c #494949",
"b	c #F8F8F8",
"c	c #4F4F4F",
"d	c #929292",
"e	c #BDBDBD",
"f	c #BABABA",
"g	c #C2C2C2",
"h	c #B5B5B5",
"i	c #383838",
"j	c #353535",
"k	c #C7C7C7",
"l	c #5F5F5F",
"                                ",
"                                ",
"                                ",
"                                ",
"                                ",
"                                ",
"                                ",
"                                ",
"                                ",
"    .++@#     $+   .++++%&*=    ",
"    .+++-     $+   .++++++++;   ",
"    .+>,')    $+   .+!  #~{+]^  ",
"    .+/(+;    $+   .+!    )_+=  ",
"    .+/:<[.   $+   .+!     }+|  ",
"    .+/ 1+2   $+   .+!    )[+=  ",
"    .+/ 34&5  $+   .+!  #67+4^  ",
"    .+/  8+9  $+   .++++++++;   ",
"    .+/  0!ab $+   .++++%cd=    ",
"    .+/   e+f $+   .+!          ",
"    .+/   ^$>3$+   .+!          ",
"    .+/    g+h$+   .+!          ",
"    .+/    ._ij+   .+!          ",
"    .+/     k+++   .+!          ",
"    .+/     )l++   .+!          ",
"                                ",
"                                ",
"                                ",
"                                ",
"                                ",
"                                ",
"                                ",
"                                "};
